<svg width="30" height="30" viewBox="0 0 30 30" xmlns="http://www.w3.org/2000/svg">
                    <path d="M15 2C10 2 5 10 5 18C5 24 10 28 15 28C20 28 25 24 25 18C25 10 20 2 15 2Z" fill="#8E44AD"/>
                    <path d="M6 14C8 12 10 16 12 14C14 12 16 16 18 14C20 12 22 16 24 14" fill="none" stroke="#F1C40F" stroke-width="2" stroke-linecap="round"/>
                    <path d="M6 20C8 18 10 22 12 20C14 18 16 22 18 20C20 18 22 22 24 20" fill="none" stroke="white" stroke-width="1.5" stroke-linecap="round"/>
                </svg>